<?xml version="1.0" encoding="utf-8"?>

<!-- License: CC Attribution. Made by Anita Csillag: https://dribbble.com/AnitaCsillag -->
<svg width="800px" height="800px" viewBox="0 -56 1136 1136" class="icon"  version="1.1" xmlns="http://www.w3.org/2000/svg"><path d="M354.461538 599.630769l481.87077-350.523077v316.849231s-8.664615 46.08-56.32 46.08c-47.852308 0-396.406154 9.255385-425.55077-12.406154z" fill="#E3D9EA" /><path d="M878.867692 93.932308H303.458462c-26.387692 0-47.852308 24.221538-47.852308 53.956923v729.993846c0 29.538462 21.464615 53.956923 47.852308 53.956923h575.40923c26.387692 0 47.852308-24.221538 47.852308-53.956923V147.889231c0.196923-29.538462-21.464615-53.956923-47.852308-53.956923z m-42.535384 464.147692c0 29.538462-21.464615 53.956923-47.852308 53.956923h-403.692308c-26.387692 0-47.852308-24.221538-47.852307-53.956923v-309.169231c0-29.538462 21.464615-53.956923 47.852307-53.956923h403.495385c26.387692 0 47.852308 24.221538 47.852308 53.956923v309.169231z" fill="#FF8598" /><path d="M879.064615 945.230769H303.458462c-33.870769 0-61.243077-30.129231-61.243077-67.347692V147.889231c0-37.218462 27.569231-67.347692 61.243077-67.347693h575.40923c33.870769 0 61.243077 30.129231 61.243077 67.347693v729.993846c0.196923 37.218462-27.372308 67.347692-61.046154 67.347692zM303.458462 107.52c-18.904615 0-34.461538 18.116923-34.461539 40.369231v729.993846c0 22.252308 15.36 40.369231 34.461539 40.369231h575.40923c18.904615 0 34.461538-18.116923 34.461539-40.369231V147.889231c0-22.252308-15.36-40.369231-34.461539-40.369231H303.458462z m484.824615 517.907692H384.787692c-33.870769 0-61.243077-30.129231-61.243077-67.347692v-309.169231c0-37.218462 27.569231-67.347692 61.243077-67.347692h403.495385c33.870769 0 61.243077 30.129231 61.243077 67.347692v309.169231c0.196923 37.218462-27.372308 67.347692-61.243077 67.347692zM384.787692 208.738462c-18.904615 0-34.461538 18.116923-34.461538 40.36923v309.169231c0 22.252308 15.36 40.369231 34.461538 40.369231h403.495385c18.904615 0 34.461538-18.116923 34.461538-40.369231v-309.169231c0-22.252308-15.36-40.369231-34.461538-40.36923H384.787692z" fill="#493B4E" /><path d="M694.153846 798.326154H490.338462c-7.286154 0-13.390769-5.907692-13.39077-13.390769v-34.067693c0-7.286154 5.907692-13.390769 13.39077-13.390769h203.815384c7.286154 0 13.390769 5.907692 13.390769 13.390769v34.067693c0 7.483077-6.104615 13.390769-13.390769 13.390769z" fill="#493B4E" /><path d="M677.021538 807.384615h-169.550769c-21.661538 0-39.384615-17.723077-39.384615-39.384615s17.723077-39.384615 39.384615-39.384615h169.550769c21.661538 0 39.384615 17.723077 39.384616 39.384615s-17.723077 39.384615-39.384616 39.384615z m-169.550769-60.84923c-11.815385 0-21.464615 9.649231-21.464615 21.464615s9.649231 21.464615 21.464615 21.464615h169.550769c11.815385 0 21.464615-9.649231 21.464616-21.464615s-9.649231-21.464615-21.464616-21.464615h-169.550769z" fill="#493B4E" /></svg>